<?xml version="1.0" standalone="no"?>
<!DOCTYPE svg PUBLIC "-//W3C//DTD SVG 20010904//EN"
 "http://www.w3.org/TR/2001/REC-SVG-20010904/DTD/svg10.dtd">
<svg version="1.0" xmlns="http://www.w3.org/2000/svg"
 width="2754.000000pt" height="823.000000pt" viewBox="0 0 2754.000000 823.000000"
 preserveAspectRatio="xMidYMid meet">

<g transform="translate(0.000000,823.000000) scale(0.100000,-0.100000)"
fill="#000000" stroke="none">
<path d="M18470 7220 c-2986 -5 -3211 -7 -3290 -23 -200 -41 -368 -99 -531
-184 l-107 -56 -86 37 c-196 84 -456 157 -706 198 l-135 23 -2877 2 -2878 3 0
-3005 0 -3005 6215 0 c4308 0 6246 3 6313 11 133 14 257 41 388 83 l111 36
134 -34 c157 -40 338 -71 499 -86 76 -6 1073 -10 2913 -10 l2797 0 0 1895 0
1895 -2970 0 c-1633 0 -2970 -2 -2970 -4 0 -1 93 -95 206 -207 230 -227 291
-298 388 -445 140 -214 243 -472 301 -754 l31 -155 1727 -3 1727 -2 0 -325 0
-325 -1816 0 c-1591 0 -1815 2 -1811 15 4 8 11 81 18 164 38 487 -106 957
-409 1332 -87 108 -272 282 -383 361 -184 131 -394 231 -597 284 -56 15 -102
30 -102 33 0 17 143 193 215 266 213 212 459 343 755 401 78 15 323 17 2888
21 l2802 4 0 780 0 779 -2478 0 c-1363 0 -2613 2 -2778 3 -164 2 -1741 1
-3504 -3z m-4927 -1583 c318 -64 528 -177 758 -406 230 -231 348 -451 399
-749 25 -142 27 -375 5 -512 -49 -303 -191 -569 -421 -791 -222 -213 -449
-331 -732 -379 -111 -19 -173 -20 -2123 -20 l-2009 0 0 1440 0 1441 2018 -4
c1878 -2 2023 -4 2105 -20z m5607 18 c0 -3 -29 -63 -63 -133 -74 -148 -107
-231 -157 -397 l-37 -120 -1350 -3 -1350 -2 -18 67 c-29 110 -113 329 -176
459 -32 67 -59 124 -59 128 0 3 722 6 1605 6 883 0 1605 -2 1605 -5z m1131
-2240 c85 -30 161 -100 193 -177 l14 -33 -759 3 c-417 2 -759 -1 -759 -5 0
-17 69 -192 119 -301 28 -63 51 -116 51 -118 0 -2 -720 -4 -1600 -4 -880 0
-1600 2 -1600 4 0 2 31 68 69 147 69 144 120 276 162 422 l23 77 2022 0 c1795
0 2026 -2 2065 -15z"/>
<path d="M55 5168 c3 -667 7 -1267 10 -1332 23 -550 242 -1127 606 -1596 147
-190 402 -432 613 -583 58 -42 2050 -1291 2154 -1351 9 -6 12 136 12 697 l0
704 -916 609 c-999 663 -960 634 -1054 794 -110 189 -203 489 -244 788 -13 94
-16 243 -16 895 l0 783 -442 304 c-243 168 -506 349 -585 403 l-143 98 5
-1213z"/>
<path d="M6660 5981 l-575 -398 -5 -819 c-6 -793 -6 -823 -28 -939 -59 -314
-133 -536 -239 -718 -89 -153 -71 -140 -1055 -793 l-908 -603 0 -707 c0 -575
2 -705 13 -701 20 7 2006 1249 2108 1318 467 313 864 804 1068 1316 119 299
180 575 201 908 11 185 14 2535 3 2534 -5 0 -267 -180 -583 -398z"/>
<path d="M2576 6071 c-23 -4 -32 -14 -38 -37 -4 -17 -15 -37 -23 -44 -8 -7
-15 -17 -15 -22 0 -6 -9 -23 -21 -39 -19 -27 -22 -28 -43 -14 -28 18 -56 10
-56 -16 0 -18 -13 -19 -247 -21 l-248 -3 -3 -77 -3 -78 -60 0 -60 0 55 -55
c31 -30 71 -61 89 -69 40 -16 68 -47 70 -75 1 -14 13 -28 35 -38 24 -12 31
-20 26 -32 -4 -9 -8 -26 -8 -38 -1 -23 -2 -23 -171 -23 l-170 0 -35 -61 c-19
-34 -49 -87 -66 -118 l-32 -56 20 -28 c14 -20 17 -31 9 -40 -5 -7 -14 -40 -20
-72 -10 -60 -9 -60 22 -88 59 -52 167 -119 214 -133 25 -8 83 -14 129 -14 72
0 93 -4 166 -36 45 -19 92 -44 103 -54 13 -11 44 -21 85 -25 40 -4 92 -20 135
-40 82 -38 125 -50 125 -35 0 8 6 8 20 0 10 -6 46 -13 80 -17 50 -5 64 -3 80
12 13 12 18 25 14 37 -5 16 -2 18 20 12 16 -4 26 -2 26 5 0 6 5 11 10 11 6 0
10 -7 10 -15 0 -17 16 -20 25 -5 12 20 26 10 15 -10 -9 -16 -6 -27 14 -57 19
-27 23 -40 15 -50 -9 -10 -17 -9 -39 7 -25 18 -29 18 -41 4 -10 -13 -4 -22 42
-62 29 -26 73 -66 98 -89 24 -24 52 -45 63 -48 10 -4 38 -37 62 -75 27 -42 65
-84 98 -108 29 -21 75 -62 101 -91 26 -28 52 -51 57 -51 6 0 6 -9 1 -22 -5
-13 -15 -23 -24 -23 -9 0 -19 -4 -23 -8 -4 -4 -2 -7 4 -7 13 0 62 -47 62 -59
0 -5 -7 -14 -16 -21 -27 -23 -44 -78 -33 -107 20 -54 48 -81 89 -88 29 -5 48
-17 70 -43 l30 -36 25 24 c36 34 33 66 -8 79 -31 10 -64 47 -53 58 10 10 54
-7 84 -32 17 -14 35 -25 41 -25 15 0 42 -56 35 -73 -7 -20 22 -47 51 -47 32 0
153 -64 192 -102 40 -38 47 -68 29 -113 -23 -53 -12 -66 72 -90 32 -9 29 21
-5 54 l-28 26 25 3 c13 2 26 -1 28 -7 2 -6 10 -11 17 -11 17 0 35 -31 35 -60
0 -11 12 -32 27 -44 27 -23 28 -23 41 -5 16 22 100 27 121 7 11 -10 14 -10 18
0 6 17 30 15 37 -3 3 -9 18 -15 34 -15 75 0 92 -10 123 -72 23 -46 38 -63 66
-74 40 -17 37 -19 50 21 8 26 33 43 33 22 0 -4 7 -24 16 -45 9 -20 20 -55 23
-77 l6 -40 65 2 c56 2 67 5 83 27 14 19 28 26 53 26 30 0 34 3 34 26 0 18 -18
44 -60 87 -33 34 -60 70 -60 79 0 18 33 42 44 31 3 -3 6 3 6 15 0 12 5 22 11
22 5 0 7 -4 4 -10 -10 -16 46 9 83 37 26 19 33 31 29 49 -3 16 0 24 9 24 8 0
14 7 14 15 0 8 6 15 13 15 6 0 23 9 37 20 17 13 41 20 73 20 48 0 107 -22 107
-40 0 -6 5 -10 12 -10 26 0 88 -53 88 -75 0 -32 25 -51 45 -35 11 10 19 10 27
2 6 -6 16 -8 23 -6 7 3 16 1 20 -5 3 -7 0 -8 -9 -5 -11 4 -16 0 -16 -10 0 -9
-7 -16 -16 -16 -12 0 -15 -6 -10 -26 5 -20 3 -27 -14 -31 -26 -7 -25 -20 5
-74 14 -24 28 -52 31 -61 4 -10 10 -18 14 -18 4 0 20 -18 35 -40 28 -41 45
-44 45 -8 0 11 8 22 20 25 15 4 20 14 20 37 l0 31 19 -25 c23 -29 38 -20 67
39 11 23 28 42 41 46 26 6 22 27 -23 118 -24 48 -27 61 -16 77 11 18 10 20
-10 20 -15 0 -45 24 -89 70 -83 87 -168 130 -274 137 -38 3 -74 11 -80 17 -11
14 -130 28 -163 19 -12 -3 -22 -10 -22 -15 0 -15 -29 -40 -38 -34 -5 3 -20 -6
-32 -20 -14 -13 -53 -33 -89 -45 -36 -11 -82 -31 -101 -44 -47 -33 -96 -52
-152 -60 -47 -7 -47 -7 -108 50 -33 32 -60 53 -60 48 0 -6 7 -16 15 -23 8 -7
15 -15 15 -19 0 -10 -93 -10 -112 0 -20 11 -25 48 -5 50 6 1 1 4 -13 8 -17 5
-26 16 -30 36 -3 20 -19 39 -50 62 -87 63 -102 76 -113 100 -5 12 -16 23 -23
23 -7 0 -26 17 -41 38 -15 20 -31 39 -35 40 -5 2 -8 9 -8 17 0 7 -7 18 -15 25
-8 7 -24 39 -36 72 -12 32 -30 63 -39 68 -19 10 -28 28 -41 79 -7 30 -4 40 22
73 25 30 29 44 24 67 -4 20 -11 28 -21 24 -19 -7 -18 15 2 52 29 54 35 86 19
102 -20 20 -19 36 5 51 18 11 19 10 13 -19 -5 -27 -3 -31 13 -27 22 4 21 35
-2 81 -11 24 -11 28 0 24 11 -4 13 18 12 114 -1 65 -4 119 -9 119 -4 0 2 17
13 37 11 21 20 42 20 46 0 5 11 22 25 39 14 16 28 41 31 54 7 29 -15 144 -27
144 -5 0 -9 5 -9 10 0 6 5 10 11 10 7 0 17 8 24 17 10 14 7 24 -18 59 -35 50
-70 63 -100 37 -15 -13 -21 -15 -24 -5 -7 19 -59 43 -78 35 -13 -4 -16 -1 -13
13 2 11 13 20 26 22 20 3 16 8 -30 49 -49 41 -56 44 -95 39 -23 -3 -45 -1 -48
4 -3 6 -13 10 -21 10 -8 0 -27 9 -42 20 -26 19 -30 20 -65 5 -47 -20 -121 -19
-152 1 -14 9 -31 14 -39 11 -7 -3 -19 0 -25 6 -9 9 -11 8 -6 -5 5 -12 -1 -18
-27 -23 -18 -4 -42 -13 -54 -20 -13 -8 -46 -12 -90 -11 -38 2 -72 -1 -75 -6
-4 -6 -31 -5 -67 2 -34 7 -71 10 -82 7 -13 -3 -36 3 -57 15 l-35 21 -45 -24
c-24 -13 -49 -29 -54 -36 -8 -8 -22 -4 -56 19 l-46 31 -17 -23 -17 -22 -41 26
c-48 30 -50 36 -21 62 12 10 25 29 30 42 5 12 16 22 25 22 32 0 94 93 94 141
0 11 4 28 10 38 6 12 5 29 -2 49 -10 25 -9 42 0 78 8 30 9 50 3 58 -11 12 4
91 21 113 14 18 27 73 21 89 -3 8 -19 14 -39 14 -35 0 -48 22 -19 34 8 3 15
10 15 16 0 11 0 11 -44 1z m-156 -839 c0 -5 -11 -14 -24 -21 -26 -14 -72 -11
-69 4 3 18 93 34 93 17z m743 -877 c10 -14 13 -25 8 -25 -5 0 -13 5 -16 10 -3
6 -20 10 -37 10 -26 0 -29 2 -18 15 18 22 42 18 63 -10z m35 -47 c-3 -7 -14
-12 -26 -11 -32 1 -34 2 -27 13 9 15 58 13 53 -2z m148 -63 c14 -14 37 -31 52
-39 31 -17 132 -119 132 -134 0 -5 7 -15 15 -22 19 -16 20 -56 1 -63 -20 -8
-133 19 -184 44 -46 22 -82 77 -82 124 0 14 -4 25 -9 25 -13 0 -20 52 -10 72
14 26 56 22 85 -7z"/>
<path d="M3310 4121 c0 -5 8 -11 18 -14 9 -2 26 -8 37 -12 19 -7 18 -6 -2 14
-22 21 -53 29 -53 12z"/>
</g>
</svg>
