<?xml version="1.0" standalone="no"?>
<!DOCTYPE svg PUBLIC "-//W3C//DTD SVG 20010904//EN"
 "http://www.w3.org/TR/2001/REC-SVG-20010904/DTD/svg10.dtd">
<svg version="1.0" xmlns="http://www.w3.org/2000/svg"
 width="878.000000pt" height="878.000000pt" viewBox="0 0 878.000000 878.000000"
 preserveAspectRatio="xMidYMid meet">
<metadata>
Created by potrace 1.14, written by Peter Selinger 2001-2017
</metadata>
<g transform="translate(0.000000,878.000000) scale(0.100000,-0.100000)"
fill="#000000" stroke="none">
<path d="M4169 8776 c-2 -2 -40 -6 -84 -10 -44 -3 -91 -8 -105 -10 -14 -2 -48
-7 -75 -10 -133 -15 -353 -66 -510 -118 -155 -51 -247 -92 -385 -170 -25 -14
-74 -41 -110 -60 -36 -20 -92 -50 -125 -68 -33 -19 -141 -78 -240 -132 -99
-54 -187 -103 -195 -108 -8 -5 -40 -22 -70 -38 -30 -17 -281 -154 -558 -306
-277 -152 -506 -276 -509 -276 -3 0 -17 -8 -31 -18 -15 -11 -65 -39 -112 -64
-142 -76 -585 -319 -592 -326 -4 -4 -10 -680 -13 -1502 l-6 -1495 30 -175 c39
-225 37 -213 72 -365 55 -235 104 -397 191 -625 24 -65 133 -277 160 -315 5
-5 33 -48 64 -94 30 -47 65 -97 77 -112 12 -15 33 -42 47 -60 155 -204 464
-520 590 -601 47 -30 301 -191 565 -358 676 -427 883 -558 940 -594 28 -18 78
-50 112 -72 34 -21 102 -64 150 -95 48 -31 261 -166 473 -299 212 -133 405
-255 429 -271 l44 -29 36 23 c104 63 362 224 819 509 279 175 514 321 522 325
13 6 44 25 190 118 19 13 279 175 578 361 298 187 553 346 566 354 40 25 135
84 171 105 37 23 60 51 148 177 31 46 76 104 100 129 61 66 135 154 176 207
19 26 38 49 41 52 11 9 146 212 189 287 97 164 223 491 286 742 14 58 30 112
35 120 4 9 11 39 14 66 4 28 11 73 16 100 42 221 48 283 50 515 1 129 3 829 6
1556 l4 1320 -38 20 c-20 11 -77 42 -127 69 -49 26 -116 63 -148 81 -32 19
-60 34 -62 34 -2 0 -34 17 -72 38 -37 22 -108 60 -158 87 -49 26 -126 68 -170
93 -44 24 -123 67 -175 95 -52 27 -112 61 -132 74 -21 12 -40 23 -42 23 -3 0
-70 35 -148 78 -79 43 -183 100 -233 127 -49 26 -94 51 -100 55 -5 4 -55 31
-110 60 -55 30 -122 66 -148 82 -26 15 -49 28 -51 28 -2 0 -39 19 -82 43 -114
63 -199 109 -279 152 -183 99 -381 208 -392 217 -7 6 -13 7 -13 4 0 -4 -12 1
-27 11 -51 35 -347 137 -453 157 -14 2 -46 9 -72 15 -57 13 -214 38 -288 46
-30 3 -71 8 -90 11 -40 6 -556 15 -561 10z"/>
</g>
</svg>
